<?xml version="1.0" encoding="utf-8"?>
<svg id="visual" viewBox="0 0 960 175" width="960" height="175" xmlns="http://www.w3.org/2000/svg" version="1.1">
  <path d="M 0.025 94.05 L 137.025 56.05 L 274.025 81.05 L 411.025 84.05 L 549.025 54.05 L 686.025 80.05 L 823.025 65.05 L 960.025 77.05 L 960.025 175.05 L 823.025 175.05 L 686.025 175.05 L 549.025 175.05 L 411.025 175.05 L 274.025 175.05 L 137.025 175.05 L 0.025 175.05 L 0.025 94.05 Z" fill="#f78e0f"/>
  <path d="M 0.025 79.05 L 137.025 90.05 L 274.025 102.05 L 411.025 76.05 L 549.025 110.05 L 686.025 87.05 L 823.025 75.05 L 960.025 83.05 L 960.025 175.05 L 823.025 175.05 L 686.025 175.05 L 549.025 175.05 L 411.025 175.05 L 274.025 175.05 L 137.025 175.05 L 0.025 175.05 L 0.025 79.05 Z" fill="#fa9c07"/>
  <path d="M 0.025 119.05 L 137.025 114.05 L 274.025 95.05 L 411.025 112.05 L 549.025 118.05 L 686.025 110.05 L 823.025 109.05 L 960.025 102.05 L 960.025 175.05 L 823.025 175.05 L 686.025 175.05 L 549.025 175.05 L 411.025 175.05 L 274.025 175.05 L 137.025 175.05 L 0.025 175.05 L 0.025 119.05 Z" fill="#fdaa00"/>
  <path d="M 0.025 117.05 L 137.025 120.05 L 274.025 134.05 L 411.025 123.05 L 549.025 133.05 L 686.025 116.05 L 823.025 124.05 L 960.025 128.05 L 960.025 175.05 L 823.025 175.05 L 686.025 175.05 L 549.025 175.05 L 411.025 175.05 L 274.025 175.05 L 137.025 175.05 L 0.025 175.05 L 0.025 117.05 Z" fill="#feb800"/>
  <path d="M 0.025 157.05 L 137.025 137.05 L 274.025 155.05 L 411.025 141.05 L 549.025 151.05 L 686.025 145.05 L 823.025 150.05 L 960.025 137.05 L 960.025 175.05 L 823.025 175.05 L 686.025 175.05 L 549.025 175.05 L 411.025 175.05 L 274.025 175.05 L 137.025 175.05 L 0.025 175.05 L 0.025 157.05 Z" fill="#ffc600"/>
</svg>